<?xml version="1.0" encoding="utf-8"?>
<!-- Generator: Adobe Illustrator 16.0.0, SVG Export Plug-In . SVG Version: 6.00 Build 0)  -->
<!DOCTYPE svg PUBLIC "-//W3C//DTD SVG 1.1//EN" "http://www.w3.org/Graphics/SVG/1.1/DTD/svg11.dtd">
<svg version="1.1" id="Layer_1" xmlns="http://www.w3.org/2000/svg" xmlns:xlink="http://www.w3.org/1999/xlink" x="0px" y="0px"
	 width="226.329px" height="34.302px" viewBox="0 0 226.329 34.302" enable-background="new 0 0 226.329 34.302"
	 xml:space="preserve">
<g>
	<path fill="#FFFFFF" d="M49.174,2H33.656C31.086,2,29,4.085,29,6.655v15.518c0,2.57,2.086,4.655,4.656,4.655h15.518
		c2.57,0,4.655-2.085,4.655-4.655V6.655C53.829,4.085,51.744,2,49.174,2z M47.993,11.553c0.017,0.146,0.017,0.291,0.017,0.436
		c0,4.494-3.427,9.667-9.667,9.667c-1.924,0-3.702-0.566-5.205-1.52c0.258,0.032,0.533,0.048,0.808,0.048
		c1.601,0,3.056-0.549,4.219-1.455c-1.487-0.032-2.731-1.019-3.168-2.36c0.211,0.033,0.421,0.064,0.631,0.064
		c0.307,0,0.534-0.048,0.824-0.129c-1.552-0.307-2.796-1.681-2.796-3.33c0-0.016,0-0.033,0-0.033
		c0.517,0.243,1.051,0.404,1.616,0.421c-0.921-0.614-1.471-1.649-1.471-2.829c0-0.615,0.178-1.212,0.469-1.714
		c1.681,2.069,4.187,3.411,7.016,3.556c-0.065-0.242-0.081-0.517-0.081-0.776c0-1.875,1.519-3.395,3.395-3.395
		c0.97,0,1.859,0.404,2.473,1.067c0.776-0.146,1.503-0.436,2.166-0.824c-0.259,0.792-0.792,1.47-1.503,1.891
		c0.695-0.097,1.341-0.275,1.956-0.549C49.238,10.486,48.656,11.084,47.993,11.553z"/>
	<path fill="#FFFFFF" d="M76.173,2H60.655C58.085,2,56,4.085,56,6.655v15.518c0,2.57,2.085,4.655,4.655,4.655h8.793V17h-3.621V13.38
		h3.621v-2.684c0-3.2,1.988-4.946,4.849-4.946c1.358,0,2.393,0.097,2.91,0.145v3.346l-2.133,0.016c-1.552,0-2.005,0.728-2.005,1.81
		v2.312h3.767L76.351,17h-3.281v9.828h3.104c2.57,0,4.656-2.085,4.656-4.655V6.655C80.829,4.085,78.743,2,76.173,2z"/>
	<path fill="#FFFFFF" d="M103.173,2H87.655C85.085,2,83,4.085,83,6.655v15.518c0,2.57,2.085,4.655,4.655,4.655h15.518
		c2.57,0,4.656-2.085,4.656-4.655V6.655C107.829,4.085,105.744,2,103.173,2z M90.565,22.788h-3.734V11.57h3.734V22.788z
		 M88.69,10.05h-0.017c-1.261,0-2.069-0.873-2.069-1.939c0-1.099,0.84-1.94,2.118-1.94c1.277,0,2.069,0.841,2.085,1.94
		C90.808,9.177,90,10.05,88.69,10.05z M103.998,22.788h-3.734v-5.997c0-1.52-0.534-2.538-1.875-2.538
		c-1.035,0-1.649,0.695-1.923,1.357c-0.097,0.243-0.113,0.582-0.113,0.906v6.271h-3.734c0.049-10.168,0-11.218,0-11.218h3.734v1.584
		c0.492-0.774,1.381-1.843,3.346-1.843c2.457,0,4.299,1.601,4.299,5.043V22.788z"/>
	<path fill="#FFFFFF" d="M130.173,2h-15.518C112.085,2,110,4.085,110,6.655v15.518c0,2.57,2.085,4.655,4.655,4.655h15.518
		c2.57,0,4.655-2.085,4.655-4.655V6.655C134.828,4.085,132.743,2,130.173,2z M124.112,9.727c0,2.667-2.425,2.99-2.425,4.3
		c0,1.342,3.168,1.859,3.168,4.72c0,2.958-3.217,4.218-5.706,4.218c-1.957,0-4.688-0.792-4.688-3.2c0-1.147,0.727-2.117,1.681-2.715
		c1.196-0.744,2.764-0.922,4.153-1.019c-0.371-0.468-0.646-0.905-0.646-1.519c0-0.307,0.081-0.582,0.21-0.873
		c-0.226,0.032-0.469,0.048-0.695,0.048c-2.004,0-3.604-1.455-3.604-3.491c0-2.942,2.829-4.575,5.496-4.575h4.284l-1.423,1.034
		h-1.342C123.497,7.593,124.112,8.304,124.112,9.727z M130.69,13.897h-2.069v2.586h-1.034v-2.586h-2.069v-1.035h2.069v-2.069h1.034
		v2.069h2.069V13.897z"/>
	<path fill="#FFFFFF" d="M120.539,16.645c-1.682,0-4.155,0.534-4.155,2.651c0,2.004,2.15,2.731,3.815,2.731
		c1.536,0,3.2-0.63,3.2-2.408c0-1.391-1.373-2.231-2.36-2.942C120.862,16.645,120.701,16.645,120.539,16.645z"/>
	<path fill="#FFFFFF" d="M119.472,6.72c-1.374,0-2.004,1.164-2.004,2.376c0,1.537,0.873,3.96,2.716,3.96
		c1.326,0,2.021-1.018,2.021-2.247C122.204,9.291,121.315,6.72,119.472,6.72z"/>
	<path fill="#FFFFFF" d="M157.173,2h-15.518C139.085,2,137,4.085,137,6.655v15.518c0,2.57,2.085,4.655,4.655,4.655h15.518
		c2.57,0,4.655-2.085,4.655-4.655V6.655C161.829,4.085,159.744,2,157.173,2z M149.509,10.287c-0.5,0-0.903,0.404-0.903,0.903v5.38
		c0,2.056-1.711,3.709-3.768,3.709c-2.094,0-3.785-1.672-3.785-3.767c0,0,0-0.019,0-2.344h2.901v2.306
		c0,0.499,0.384,0.902,0.884,0.902c0.5,0,0.904-0.403,0.904-0.902v-5.438c0-2.037,1.729-3.651,3.767-3.651s3.767,1.633,3.767,3.67
		v1.19l-1.729,0.52l-1.153-0.539V11.19C150.393,10.691,149.989,10.287,149.509,10.287z M157.945,16.513
		c0,2.094-1.691,3.767-3.767,3.767c-2.075,0-3.786-1.672-3.786-3.729v-2.363l1.153,0.538l1.729-0.5v2.364
		c0,0.5,0.403,0.903,0.883,0.903c0.5,0,0.903-0.403,0.903-0.903v-2.421h2.883C157.945,16.495,157.945,16.513,157.945,16.513z"/>
	<path fill="#FFFFFF" d="M21.587,8.525H7.27c-0.165,0-0.311,0.146-0.311,0.312c0,1.108,0.555,2.071,1.43,2.762
		c1.303,1.021,2.606,2.052,3.899,3.083c0.515,0.417,1.45,1.313,2.13,1.313h0.01h0.01c0.681,0,1.615-0.896,2.13-1.313
		c1.293-1.031,2.597-2.062,3.899-3.083c0.633-0.496,1.43-1.576,1.43-2.402C21.898,8.953,21.956,8.525,21.587,8.525z"/>
	<path fill="#FFFFFF" d="M17.083,15.877c-0.729,0.613-1.633,1.362-2.645,1.362h-0.01h-0.01c-1.012,0-1.916-0.75-2.645-1.362
		c-1.352-1.128-2.753-2.218-4.143-3.287c-0.243-0.195-0.467-0.409-0.671-0.642v7.469c0,0.165,0.146,0.311,0.311,0.311h14.317
		c0.165,0,0.311-0.146,0.311-0.311v-7.469c-0.205,0.232-0.428,0.446-0.671,0.642C19.836,13.66,18.436,14.749,17.083,15.877z"/>
	<path fill="#FFFFFF" d="M22.173,2H6.655C4.085,2,2,4.085,2,6.655v15.518c0,2.57,2.085,4.655,4.655,4.655h15.518
		c2.57,0,4.655-2.085,4.655-4.655V6.655C26.829,4.085,24.744,2,22.173,2z M23.143,19.418c0,0.856-0.701,1.556-1.556,1.556H7.27
		c-0.855,0-1.556-0.7-1.556-1.556V8.836c0-0.855,0.7-1.556,1.556-1.556h14.317c0.855,0,1.556,0.701,1.556,1.556V19.418z"/>
	<g>
		<path fill="#FFFFFF" d="M183.557,13.621c-0.372,0-0.668,0.315-0.668,0.668c0,0.353,0.315,0.668,0.668,0.668
			c0.353,0,0.667-0.315,0.667-0.668C184.225,13.936,183.91,13.621,183.557,13.621z"/>
		<path fill="#FFFFFF" d="M178.86,8.59V6.918h-6.702v6.702h9.375V9.592h-1.67C179.305,9.592,178.86,9.146,178.86,8.59z"/>
		<rect x="172.141" y="17.63" fill="#FFFFFF" width="9.393" height="2.692"/>
		<path fill="#FFFFFF" d="M184.173,2h-15.518C166.085,2,164,4.085,164,6.655v15.518c0,2.57,2.085,4.655,4.655,4.655h15.518
			c2.57,0,4.655-2.085,4.655-4.655V6.655C188.829,4.085,186.743,2,184.173,2z M185.228,18.984h-2.339v1.672
			c0,0.557-0.444,1.003-1.002,1.003h-10.082c-0.556,0-1.001-0.446-1.001-1.003v-1.672h-2.339c-0.186,0-0.335-0.147-0.335-0.333
			v-4.362c0-1.095,0.91-2.005,2.006-2.005h0.668V6.565c0-0.557,0.446-1.001,1.001-1.001h7.037c0.558,0,1.318,0.315,1.727,0.723
			l1.578,1.578c0.39,0.39,0.724,1.17,0.724,1.727v2.692h0.668c1.095,0,2.005,0.91,2.005,2.005v4.362h0.019
			C185.562,18.837,185.414,18.984,185.228,18.984z"/>
	</g>
</g>
<path fill="#FFFFFF" d="M215.634,7.292v14.337c0,2.839-2.309,5.148-5.132,5.148h-14.37c-2.823,0-5.132-2.31-5.132-5.148V7.292
	c0-2.839,2.309-5.148,5.132-5.148h14.37C213.325,2.143,215.634,4.453,215.634,7.292z M213.453,13.305
	c0-1.09-0.882-1.988-1.973-1.988c-0.641,0-1.203,0.305-1.571,0.77c-1.508-1.074-3.641-1.764-6.015-1.844l1.332-4.25l3.304,0.787
	c0.016,1.059,0.882,1.924,1.94,1.924c1.075,0,1.957-0.866,1.957-1.94c0-1.075-0.882-1.957-1.957-1.957
	c-0.786,0-1.475,0.497-1.78,1.187l-3.641-0.866c-0.192-0.048-0.401,0.064-0.465,0.272l-1.523,4.844
	c-2.406,0.048-4.555,0.738-6.111,1.812c-0.354-0.417-0.898-0.689-1.491-0.689c-1.091,0-1.973,0.898-1.973,1.989
	c0,0.802,0.465,1.491,1.155,1.812c-0.081,0.288-0.112,0.578-0.112,0.866c0,3.207,3.977,5.805,8.884,5.805
	c4.892,0,8.87-2.598,8.87-5.805c0-0.289-0.032-0.578-0.096-0.866C212.923,14.877,213.453,14.155,213.453,13.305z M200.334,16.353
	c-0.802,0-1.427-0.674-1.427-1.459c0-0.787,0.625-1.427,1.427-1.427c0.786,0,1.427,0.641,1.427,1.427
	C201.761,15.679,201.12,16.353,200.334,16.353z M206.797,18.421c0.161,0.161,0.161,0.417,0,0.578
	c-0.706,0.689-1.796,1.026-3.335,1.026h-0.016c0,0,0,0-0.016,0c-1.54,0-2.63-0.337-3.32-1.026c-0.16-0.161-0.16-0.417,0-0.578
	c0.145-0.144,0.401-0.144,0.562,0c0.529,0.545,1.443,0.818,2.759,0.818c0.016,0,0.016,0,0.016,0h0.016
	c1.315,0,2.229-0.272,2.774-0.818C206.38,18.277,206.637,18.277,206.797,18.421z M208,14.894c0,0.786-0.625,1.459-1.427,1.459
	c-0.786,0-1.427-0.674-1.427-1.459c0-0.787,0.642-1.427,1.427-1.427C207.375,13.466,208,14.107,208,14.894z M209.331,6.762
	c0-0.642,0.513-1.155,1.139-1.155c0.642,0,1.155,0.513,1.155,1.155c0,0.625-0.513,1.139-1.155,1.139
	C209.844,7.901,209.331,7.388,209.331,6.762z"/>
</svg>
